<svg width="155" height="9" viewBox="0 0 155 9" fill="none" xmlns="http://www.w3.org/2000/svg">
<g clip-path="url(#clip0_27_4253)">
<path d="M10.7928 0.143066H9.29346V8.16124H10.7928V0.143066Z" fill="#140A00"/>
<path d="M18.7335 8.16124H14.166V0.143066H18.8687V1.27914H15.6537V3.41603H18.4243V4.54823H15.6537V7.01358H19.3904L18.7335 8.16124Z" fill="#140A00"/>
<path d="M5.02343 0.622622C4.30044 0.278594 3.50507 0.114209 2.70493 0.143456H0V8.16163H2.67015C3.47084 8.2031 4.26887 8.03951 4.98866 7.68634C5.63019 7.34107 6.16191 6.82263 6.5233 6.19004C6.88468 5.55744 7.06122 4.8361 7.03281 4.10811C7.05872 3.39711 6.88401 2.69317 6.52867 2.0768C6.17333 1.46042 5.6517 0.95649 5.02343 0.622622ZM4.58292 6.36866C4.00641 6.86004 3.25945 7.1044 2.50399 7.04876H1.47612V1.29112H2.31851C2.73479 1.25091 3.15491 1.29559 3.55343 1.42245C3.95195 1.54931 4.32058 1.75572 4.63702 2.02918C5.16676 2.63089 5.45447 3.40771 5.44448 4.20932C5.43448 5.01093 5.12749 5.78034 4.58292 6.36866Z" fill="#140A00"/>
<path d="M40.8133 8.11501H39.3102L37.4399 3.38525L35.5503 8.11501H34.0935L32.0996 0.201172H33.6685L34.99 6.23315L37.4245 0.201172H37.5906L39.9439 6.23315L41.3814 0.201172H42.8382L40.8133 8.11501Z" fill="#140A00"/>
<path d="M49.4615 8.31978C46.8532 8.31978 45.2109 6.52294 45.2109 4.18125C45.2363 3.08605 45.6874 2.04383 46.4685 1.27572C47.2496 0.507601 48.2992 0.0740199 49.3947 0.0669816C50.4902 0.0599432 51.5453 0.48 52.3362 1.23802C53.1271 1.99603 53.5915 3.03236 53.631 4.12714C53.6233 6.39155 52.0505 8.31978 49.4615 8.31978ZM52.0621 4.16965C52.0621 2.36508 50.9415 1.10149 49.4306 1.10149C47.9197 1.10149 46.7837 2.41145 46.7837 4.15806C46.7837 5.81966 47.7922 7.18758 49.4538 7.18758C51.1154 7.18758 52.0505 5.63804 52.0505 4.16965H52.0621Z" fill="#140A00"/>
<path d="M62.9316 8.09523C62.3461 8.24689 61.7434 8.32222 61.1386 8.31934C58.167 8.31934 56.5557 6.4684 56.5557 4.20399C56.5557 1.93958 58.2018 -0.000236216 61.1038 -0.000236216C61.8542 -0.00703973 62.5994 0.123936 63.3025 0.386182V1.74251C62.6948 1.31636 61.9697 1.08951 61.2275 1.09333C59.3572 1.09333 58.1361 2.3801 58.1361 4.11898C58.1361 5.85786 59.3456 7.23351 61.4632 7.23351C62.2213 7.21685 62.9717 7.0772 63.6851 6.82004L62.9316 8.09523Z" fill="#140A00"/>
<path d="M73.2184 8.11501H71.75V4.50586H68.0636V8.11501H66.5952V0.201172H68.0636V3.36207H71.75V0.201172H73.2184V8.11501Z" fill="#140A00"/>
<path d="M81.5343 8.11501H77.0171V0.201172H81.6541V1.32564H78.4816V3.43162H81.2175V4.55223H78.4816V6.9828H82.1681L81.5343 8.11501Z" fill="#140A00"/>
<path d="M92.1914 8.11501H91.6775L86.5188 2.39989L86.5652 8.11501H85.1084V0.201172H86.4879L90.8081 5.11254L90.7656 0.201172H92.1992L92.1914 8.11501Z" fill="#140A00"/>
<path d="M101.717 8.11501H95.4453V7.05236L100.082 1.33337H95.7544V0.201172H101.937V1.30245L97.3001 6.9828H102.378L101.717 8.11501Z" fill="#140A00"/>
<path d="M109.762 8.11501H105.256V0.201172H109.893V1.32564H106.721V3.43162H109.457V4.55223H106.721V6.9828H110.407L109.762 8.11501Z" fill="#140A00"/>
<path d="M114.828 8.11501H113.348V0.201172H114.828V8.11501Z" fill="#140A00"/>
<path d="M121.393 8.11493H119.925V1.32556H117.506V0.193359H123.804V1.32556H121.393V8.11493Z" fill="#140A00"/>
<path d="M133.361 0.201172V5.12413C133.402 5.76195 133.254 6.39778 132.936 6.9519C132.321 7.96045 131.089 8.31981 129.887 8.31981C128.986 8.36263 128.099 8.08924 127.379 7.54697C126.479 6.79732 126.448 5.77718 126.448 5.11641V0.201172H127.928V5.16663C127.928 6.29884 128.442 7.21851 129.922 7.21851C131.467 7.21851 131.896 6.17905 131.896 5.03525V0.201172H133.361Z" fill="#140A00"/>
<path d="M144.223 8.11501H143.705L138.55 2.39989L138.596 8.11501H137.136V0.201172H138.515L142.832 5.11254L142.785 0.201172H144.223V8.11501Z" fill="#140A00"/>
<path d="M154.954 7.56607C154.002 8.05131 152.95 8.30548 151.881 8.30799C149.25 8.30799 147.5 6.6348 147.5 4.19264C147.5 1.87413 149.258 0 152.094 0C152.923 0.00744908 153.746 0.151049 154.528 0.425062V1.79299C153.831 1.36092 153.03 1.12465 152.21 1.10902C150.386 1.10902 149.049 2.36488 149.049 4.16945C149.049 5.87356 150.208 7.24148 152.044 7.24148C152.582 7.25949 153.115 7.13554 153.589 6.8821L153.624 5.06595H151.596L152.256 3.98011H155.046L154.954 7.56607Z" fill="#140A00"/>
</g>
<defs>
<clipPath id="clip0_27_4253">
<rect width="155" height="8.31572" fill="white"/>
</clipPath>
</defs>
</svg>
