<?xml version="1.0" encoding="utf-8"?>
<!-- Generator: Adobe Illustrator 26.0.2, SVG Export Plug-In . SVG Version: 6.00 Build 0)  -->
<svg version="1.1" id="Ebene_1" xmlns="http://www.w3.org/2000/svg" xmlns:xlink="http://www.w3.org/1999/xlink" x="0px" y="0px"
	 viewBox="0 0 140.5 134.8" style="enable-background:new 0 0 140.5 134.8;" xml:space="preserve">
<style type="text/css">
	.st0{clip-path:url(#SVGID_00000121270790922111657670000001658312970617190326_);}
	.st1{fill:#FFFFFF;}
	.st2{fill:none;stroke:#170A00;stroke-width:1.31;stroke-linecap:round;stroke-linejoin:round;}
	.st3{fill:#FFFFFF;stroke:#170A00;stroke-width:1.31;stroke-linecap:round;stroke-linejoin:round;}
	.st4{fill:#FFE700;}
	.st5{fill:#170A00;}
</style>
<g>
	<defs>
		<rect id="SVGID_1_" x="12.5" y="10.5" width="127.4" height="116.1"/>
	</defs>
	<clipPath id="SVGID_00000154393098835766329010000009024387161188171410_">
		<use xlink:href="#SVGID_1_"  style="overflow:visible;"/>
	</clipPath>
	<g style="clip-path:url(#SVGID_00000154393098835766329010000009024387161188171410_);">
		<path class="st1" d="M129.9,81.1l0.3-3.1L27.3,71.4l-0.4,2.9"/>
		<path class="st2" d="M129.9,81.1l0.3-3.1L27.3,71.4l-0.4,2.9"/>
		<path class="st1" d="M22.5,76.9l0.4-2.9l110.4,7.5l-0.4,2.9"/>
		<path class="st2" d="M22.5,76.9l0.4-2.9l110.4,7.5l-0.4,2.9"/>
		<path class="st1" d="M133.8,92.2l5.2,1.1l-4.8,18.5"/>
		<path class="st2" d="M133.8,92.2l5.2,1.1l-4.8,18.5"/>
		<path class="st3" d="M20.7,77c0,0-0.1,26-0.1,30.5s2.2,4.1,3.1,4.3c0.9,0.2,107.7,14.1,107.7,14.1c0.2,0,0.3,0,0.5,0
			c0.2,0,0.3-0.1,0.5-0.2c0.1-0.1,0.3-0.2,0.3-0.4c0.1-0.1,0.1-0.3,0.2-0.5c1-5.4,1.3-10.9,0.8-16.4c-0.8-9.2,1-24,1-24L20.7,77z"/>
		<path class="st4" d="M82.7,105.1l-0.1,1.5l41.6,2.6l0.7-14.4l-41.5-2.6l-9,12.5L82.7,105.1z"/>
		<path class="st5" d="M45.7,90.4l-7,9.8l0.5-10.1l-4.6-0.2l-7,9.8l0.5-10l-1.7-0.1l-0.7,14.4l5.1,0.2l6.5-9l-0.4,9.3l5.1,0.2
			l10-13.9L45.7,90.4z M57.2,92.6l5.3,0.2L62,104l-5.3-0.2L57.2,92.6z M51.2,105.1l16.1,0.8L68,91.5l-16.1-0.8L51.2,105.1z
			 M69.4,91.5l-0.1,1.6l6.8,0.3l-8.9,12.4l15.4,0.7l0.1-1.6l-8.2-0.4l8.9-12.4L69.4,91.5z"/>
		<path class="st1" d="M129.6,67.4l0.1-3.1L26.6,62.9l-0.2,2.9"/>
		<path class="st2" d="M129.6,67.4l0.1-3.1L26.6,62.9l-0.2,2.9"/>
		<path class="st1" d="M22,68.7l0.2-2.9l110.6,1.9l-0.2,2.9"/>
		<path class="st2" d="M22,68.7l0.2-2.9l110.6,1.9l-0.2,2.9"/>
		<path class="st1" d="M134,78.3l5.3,0.8l-3.8,18.7"/>
		<path class="st2" d="M134,78.3l5.3,0.8l-3.8,18.7"/>
		<path class="st3" d="M20.3,68.8c0,0,1.2,25.9,1.4,30.5c0.2,4.6,2.4,4,3.3,4.1c0.9,0.1,108.2,8.7,108.2,8.7c0.2,0,0.3,0,0.5,0
			s0.3-0.1,0.5-0.2c0.1-0.1,0.2-0.2,0.3-0.4c0.1-0.2,0.1-0.3,0.1-0.5c0.7-5.5,0.7-11-0.1-16.4c-1.2-9.2-0.2-24-0.2-24L20.3,68.8z"/>
		<path class="st4" d="M83.6,93.7v1.5l41.7,0.5l-0.1-14.4l-41.6-0.5l-8.4,12.9L83.6,93.7z"/>
		<path class="st5" d="M46,81l-6.5,10.1V81h-4.6l-6.5,10.1V81h-1.7l0,14.4h5.1l6-9.4v9.3h5.1L52.2,81L46,81z M57.5,82.5h5.3l0,11.2
			h-5.3L57.5,82.5z M52.2,95.3h16.1l0-14.4L52.2,81L52.2,95.3z M69.7,80.9v1.6h6.8l-8.3,12.8l15.4-0.1v-1.6h-8.2l8.3-12.8L69.7,80.9
			z"/>
		<path class="st1" d="M129,54.6l0-3.1L25.9,55.4l-0.1,2.9"/>
		<path class="st2" d="M129,54.6l0-3.1L25.9,55.4l-0.1,2.9"/>
		<path class="st1" d="M21.7,61.4l0.1-3l110.6-3.7l-0.1,2.9"/>
		<path class="st2" d="M21.7,61.4l0.1-3l110.6-3.7l-0.1,2.9"/>
		<path class="st1" d="M134,65.3l5.3,0.5l-2.9,18.9"/>
		<path class="st2" d="M134,65.3l5.3,0.5l-2.9,18.9"/>
		<path class="st3" d="M19.9,61.6c0,0,2.5,25.8,2.9,30.4c0.5,4.6,2.6,3.8,3.5,4c0.9,0.2,108.5,3.2,108.5,3.2c0.2,0,0.3,0,0.5,0
			c0.2,0,0.3-0.1,0.4-0.2c0.1-0.1,0.2-0.3,0.3-0.4c0.1-0.2,0.1-0.3,0.1-0.5c0.4-5.5,0.1-11-0.9-16.4c-1.7-9.1-1.4-24-1.4-24
			L19.9,61.6z"/>
		<path class="st4" d="M84.4,83.3l0.1,1.5l41.6-1.6l-0.8-14.4l-41.6,1.6l-7.7,13.4L84.4,83.3z"/>
		<path class="st5" d="M46.2,72.4l-6,10.4l-0.5-10.1L35,73l-6,10.4l-0.5-10l-1.7,0.1l0.8,14.4l5.1-0.3l5.6-9.7l0.5,9.3l5.1-0.3
			l8.6-14.9L46.2,72.4z M57.8,73.4l5.3-0.3l0.6,11.2l-5.3,0.3L57.8,73.4z M53.1,86.4l16.1-0.9l-0.8-14.4l-16.1,0.9L53.1,86.4z
			 M69.9,71.1l0.1,1.6l6.8-0.4l-7.6,13.2l15.4-0.8l-0.1-1.6l-8.2,0.4L84,70.4L69.9,71.1z"/>
		<path class="st1" d="M127.2,41.5l-0.2-3l-102.8,9l0.1,2.9"/>
		<path class="st2" d="M127.2,41.5l-0.2-3l-102.8,9l0.1,2.9"/>
		<path class="st1" d="M20.3,53.7l-0.1-3l110.2-9.3l0.1,2.9"/>
		<path class="st2" d="M20.3,53.7l-0.1-3l110.2-9.3l0.1,2.9"/>
		<path class="st1" d="M132.7,51.9l5.3,0.3l-1.9,19"/>
		<path class="st2" d="M132.7,51.9l5.3,0.3l-1.9,19"/>
		<path class="st3" d="M18.6,53.9c0,0,3.8,25.7,4.5,30.2c0.7,4.5,2.8,3.7,3.7,3.8c0.9,0.1,108.5-2.3,108.5-2.3c0.2,0,0.3,0,0.5-0.1
			c0.2-0.1,0.3-0.1,0.4-0.3c0.1-0.1,0.2-0.3,0.3-0.4c0.1-0.2,0.1-0.3,0.1-0.5c0.2-5.5-0.4-11-1.7-16.3c-2.2-9-2.6-23.9-2.6-23.9
			L18.6,53.9z"/>
		<path class="st4" d="M84.1,72.4l0.2,1.5l41.5-3.7l-1.5-14.3l-41.4,3.7l-7,13.7L84.1,72.4z"/>
		<path class="st5" d="M45.4,63.5l-5.5,10.7l-1-10l-4.6,0.5l-5.5,10.7l-1-10L26,65.5l1.5,14.3l5.1-0.5l5.1-9.9l1,9.3l5.1-0.5
			l7.8-15.3L45.4,63.5z M57.1,63.8l5.3-0.6l1.2,11.1l-5.3,0.6L57.1,63.8z M53.1,77.1l16-1.7l-1.5-14.3l-16,1.7L53.1,77.1z M69.1,61
			l0.2,1.6l6.8-0.7l-6.9,13.6l15.3-1.6l-0.2-1.6l-8.2,0.9l7-13.6L69.1,61z"/>
		<path class="st1" d="M124.2,27.8l-0.3-3L21.7,38.9l0.2,2.9"/>
		<path class="st2" d="M124.2,27.8l-0.3-3L21.7,38.9l0.2,2.9"/>
		<path class="st1" d="M18.1,45.4l-0.2-2.9l109.6-14.9l0.2,2.9"/>
		<path class="st2" d="M18.1,45.4l-0.2-2.9l109.6-14.9l0.2,2.9"/>
		<path class="st1" d="M130.2,37.9l5.3,0L134.6,57"/>
		<path class="st2" d="M130.2,37.9l5.3,0L134.6,57"/>
		<path class="st3" d="M16.4,45.7c0,0,5.1,25.5,6,30c0.9,4.5,3,3.5,3.9,3.6c0.9,0,108.3-7.8,108.3-7.8c0.2,0,0.3,0,0.5-0.1
			c0.2-0.1,0.3-0.2,0.4-0.3c0.1-0.1,0.2-0.3,0.3-0.4c0.1-0.2,0.1-0.3,0.1-0.5c-0.1-5.5-1-11-2.6-16.2c-2.6-8.9-3.8-23.7-3.8-23.7
			L16.4,45.7z"/>
		<path class="st4" d="M82.7,60.8l0.2,1.5l41.2-5.8l-2.2-14.2L80.8,48l-6.3,14L82.7,60.8z"/>
		<path class="st5" d="M43.6,53.9l-4.9,11l-1.6-10l-4.6,0.7l-4.9,11L26,56.7L24.3,57l2.2,14.2l5-0.8l4.6-10.2l1.5,9.2l5-0.8l7-15.7
			L43.6,53.9z M55.3,53.7l5.2-0.8l1.7,11L57,64.7L55.3,53.7z M51.9,67.1l15.9-2.5l-2.2-14.2l-15.9,2.5L51.9,67.1z M67.1,50.2
			l0.2,1.6l6.8-1.1l-6.2,13.9l15.2-2.4l-0.2-1.6l-8.1,1.3L81,48L67.1,50.2z"/>
		<path class="st1" d="M120,14.2l-0.5-3L18.1,30.5l0.4,2.9"/>
		<path class="st2" d="M120,14.2l-0.5-3L18.1,30.5l0.4,2.9"/>
		<path class="st1" d="M14.9,37.1l-0.4-2.9l108.7-20.4l0.4,2.9"/>
		<path class="st2" d="M14.9,37.1l-0.4-2.9l108.7-20.4l0.4,2.9"/>
		<path class="st1" d="M126.5,23.9l5.3-0.3l0,19.1"/>
		<path class="st2" d="M126.5,23.9l5.3-0.3l0,19.1"/>
		<path class="st3" d="M13.2,37.5c0,0,6.4,25.2,7.5,29.6c1.1,4.4,3.2,3.4,4,3.4c0.9,0,107.8-13.3,107.8-13.3c0.2,0,0.3,0,0.5-0.1
			c0.2-0.1,0.3-0.2,0.4-0.3c0.1-0.1,0.2-0.3,0.2-0.5c0-0.2,0.1-0.3,0-0.5c-0.4-5.5-1.5-10.9-3.3-16.1c-3.1-8.7-5-23.5-5-23.5
			L13.2,37.5z"/>
		<path class="st4" d="M80.2,49.2l0.3,1.4l40.9-7.9l-2.9-14.1l-40.8,7.9L72,50.9L80.2,49.2z"/>
		<path class="st5" d="M40.8,44.3l-4.4,11.2l-2.1-9.9l-4.5,1l-4.4,11.2l-2.1-9.9l-1.7,0.4l2.9,14.1l5-1l4-10.4l1.9,9.1l5-1l6.2-16
			L40.8,44.3z M52.4,43.5l5.2-1.1l2.3,10.9l-5.2,1.1L52.4,43.5z M49.8,57.1l15.7-3.3l-2.9-14.1L46.8,43L49.8,57.1z M64,39.4l0.3,1.6
			l6.7-1.4l-5.5,14.2l15.1-3.2l-0.3-1.6l-8,1.7l5.5-14.2L64,39.4z"/>
	</g>
</g>
</svg>
